<?xml version="1.0" encoding="iso-8859-1"?>
<!-- Generator: Adobe Illustrator 19.0.0, SVG Export Plug-In . SVG Version: 6.00 Build 0)  -->
<svg version="1.1" id="Layer_1" xmlns="http://www.w3.org/2000/svg" xmlns:xlink="http://www.w3.org/1999/xlink" x="0px" y="0px"
	 viewBox="0 0 512.002 512.002" style="enable-background:new 0 0 512.002 512.002;" xml:space="preserve">
<g>
	<g>
		<g>
			<path d="M510.472,109.482c-23.156-38.444-61.888-69.555-112.008-89.969C360.934,4.225,330.442,0.247,329.162,0.085
				c-5.296-0.671-10.277,2.682-11.649,7.844c-7.337,27.623-43.662,31.891-54.615,32.54c-3.331,0.196-5.004,0.27-6.171,0.27
				c-0.754,0-1.398-0.027-2.277-0.06c-0.715-0.027-1.557-0.059-2.644-0.089c-8.186-0.237-49.421-2.924-57.319-32.661
				c-1.371-5.163-6.357-8.516-11.649-7.845c-1.279,0.162-31.77,4.14-69.3,19.427C63.418,39.927,24.685,71.038,1.531,109.482
				c-1.201,1.994-1.716,4.326-1.47,6.64c0.396,3.684,4.467,36.377,25.614,49.578c1.453,0.907,3.102,1.45,4.81,1.585
				c0.393,0.031,9.75,0.757,22.536,0.757c18.131,0,33.237-1.389,45.151-4.139c-0.862,23.052-4.424,49.973-8.156,78.177
				c-9.042,68.327-18.377,138.876,8.878,173.946c-3.886,15.183-10.925,45.966-7.655,58.334c2.623,9.919,14.943,18.944,36.62,26.823
				c18.695,6.795,39.315,10.717,56.663,10.789c0.3,0.019,0.607,0.029,0.919,0.029c3.732-0.001,11.159-1.407,18.97-10.829
				c7.732-9.33,14.407-24.825,19.841-46.057c9.325-36.445,26.218-45.422,31.75-47.431c5.53,2.008,22.422,10.985,31.746,47.431
				c5.434,21.233,12.112,36.729,19.843,46.059c7.81,9.421,15.236,10.828,18.969,10.828c0.312,0,0.619-0.01,0.917-0.029
				c17.348-0.071,37.97-3.995,56.664-10.789c21.676-7.878,33.996-16.902,36.62-26.822c3.271-12.369-3.769-43.152-7.656-58.334
				c27.258-35.072,17.922-105.619,8.879-173.945c-3.732-28.204-7.294-55.125-8.156-78.177c11.913,2.75,27.02,4.138,45.15,4.138
				c12.784,0,22.144-0.726,22.537-0.757c1.707-0.135,3.357-0.678,4.809-1.585c21.147-13.199,25.223-45.891,25.616-49.576
				C512.188,113.807,511.674,111.476,510.472,109.482z M476.939,146.204c-3.562,0.205-10.104,0.503-17.96,0.503
				c-23.289,0-41.552-2.559-51.423-7.206c-3.268-1.538-7.094-1.317-10.165,0.586c-3.071,1.904-4.969,5.233-5.043,8.845
				c-0.568,27.505,3.832,60.75,8.489,95.946c8.39,63.404,17.9,135.268-7.121,160.987c-2.626,2.7-3.634,6.586-2.651,10.222
				c5.489,20.313,10.376,45.774,9.17,52.382c-1.613,2.182-9.552,7.931-25.857,13.537c-15.832,5.442-32.957,8.582-47.047,8.63
				c-1.718-0.993-10.385-7.497-18.911-40.813c-14.814-57.895-49.426-63.533-50.892-63.745c-0.505-0.073-1.014-0.11-1.523-0.11
				c-0.511,0-1.019,0.036-1.525,0.11c-1.466,0.212-36.079,5.85-50.893,63.744c-8.525,33.317-17.191,39.82-18.91,40.813
				c-14.09-0.048-31.216-3.187-47.048-8.63c-16.305-5.605-24.246-11.354-25.856-13.537c-1.209-6.608,3.678-32.07,9.167-52.382
				c0.984-3.636-0.025-7.523-2.65-10.222c-25.021-25.719-15.511-97.583-7.121-160.988c4.657-35.197,9.056-68.441,8.488-95.945
				c-0.075-3.612-1.972-6.941-5.042-8.845c-3.071-1.905-6.896-2.125-10.165-0.586c-9.871,4.647-28.135,7.206-51.426,7.206
				c-7.856,0-14.4-0.299-17.959-0.503c-7.789-6.56-11.826-20.974-13.269-28.924c26.293-41.379,68.282-65.101,99.258-77.79
				c23.87-9.779,45.012-14.682,56.15-16.825c12.76,27.531,45.587,38.432,73.996,39.253c1.01,0.029,1.79,0.058,2.451,0.083
				c1.188,0.045,2.06,0.075,3.079,0.075h0.002c1.667,0,3.539-0.078,7.428-0.307c13.407-0.796,55.455-5.977,70.662-39.095
				c26.918,5.209,112.233,26.642,155.391,94.604C488.762,125.243,484.724,139.646,476.939,146.204z"/>
			<path d="M79.781,86.522c-0.426,0.273-0.88,0.611-1.263,0.942c-4.462,3.847-4.961,10.583-1.115,15.045
				c2.11,2.447,5.089,3.703,8.085,3.703c2.263,0,4.536-0.716,6.453-2.176c4.425-3.319,5.606-9.543,2.575-14.278
				C91.34,84.795,84.744,83.347,79.781,86.522z"/>
			<path d="M160.272,48.396c-10.156,2.881-21.141,6.667-30.93,10.662c-8.062,3.289-15.89,6.951-23.266,10.882
				c-5.199,2.771-7.168,9.231-4.397,14.431c1.919,3.601,5.609,5.653,9.423,5.653c1.692,0,3.409-0.404,5.007-1.256
				c6.736-3.591,13.901-6.94,21.292-9.956c9.08-3.705,19.269-7.217,28.692-9.89c5.669-1.608,8.958-7.507,7.352-13.174
				C171.839,50.08,165.941,46.791,160.272,48.396z"/>
			<path d="M374.054,288.445c5.852-0.683,10.042-5.979,9.36-11.831l-0.059-0.48c-0.701-5.85-6.021-10.022-11.859-9.324
				c-5.85,0.701-10.025,6.01-9.324,11.86l0.051,0.415c0.634,5.433,5.242,9.433,10.582,9.433
				C373.219,288.517,373.636,288.494,374.054,288.445z"/>
			<path d="M375.029,297.258c-5.871,0.494-10.23,5.654-9.736,11.524c1.981,23.563,2.31,41.795,0.978,54.192
				c-0.629,5.857,3.609,11.116,9.466,11.747c0.387,0.042,0.772,0.062,1.153,0.062c5.38,0,10.006-4.058,10.594-9.528
				c1.477-13.745,1.164-33.346-0.931-58.26C386.059,301.124,380.898,296.766,375.029,297.258z"/>
			<path d="M330.437,153.866l-41.524-11.951l-24.067-35.699c-1.981-2.939-5.294-4.702-8.838-4.704c-0.002,0-0.004,0-0.006,0
				c-3.541,0-6.855,1.758-8.838,4.694l-24.199,35.799l-41.39,11.858c-3.406,0.976-6.107,3.581-7.205,6.952s-0.45,7.066,1.729,9.862
				l26.57,34.081l-1.513,43.026c-0.125,3.543,1.519,6.916,4.385,9.001c2.865,2.085,6.581,2.611,9.913,1.402l40.621-14.739
				l40.455,14.735c1.186,0.432,2.421,0.644,3.649,0.644c2.221,0,4.419-0.693,6.267-2.033c2.868-2.082,4.515-5.453,4.396-8.996
				l-1.466-43.185l26.512-33.924c2.184-2.793,2.836-6.488,1.743-9.86C336.541,157.454,333.844,154.846,330.437,153.866z
				 M290.181,194.527c-1.541,1.974-2.34,4.427-2.256,6.932l1.061,31.269l-29.252-10.653c-2.355-0.858-4.935-0.86-7.289-0.004
				l-29.412,10.671l1.093-31.109c0.087-2.504-0.707-4.958-2.248-6.934l-19.238-24.678l29.927-8.573
				c2.409-0.69,4.498-2.205,5.9-4.281l17.522-25.921l17.403,25.813c1.401,2.077,3.486,3.596,5.895,4.288L309.354,170
				L290.181,194.527z"/>
		</g>
	</g>
</g>
<g>
</g>
<g>
</g>
<g>
</g>
<g>
</g>
<g>
</g>
<g>
</g>
<g>
</g>
<g>
</g>
<g>
</g>
<g>
</g>
<g>
</g>
<g>
</g>
<g>
</g>
<g>
</g>
<g>
</g>
</svg>
