<?xml version="1.0" encoding="UTF-8" standalone="no"?>
<!-- Generator: Adobe Illustrator 18.0.0, SVG Export Plug-In . SVG Version: 6.00 Build 0)  -->

<svg
   xmlns:dc="http://purl.org/dc/elements/1.1/"
   xmlns:cc="http://creativecommons.org/ns#"
   xmlns:rdf="http://www.w3.org/1999/02/22-rdf-syntax-ns#"
   xmlns:svg="http://www.w3.org/2000/svg"
   xmlns="http://www.w3.org/2000/svg"
   xmlns:sodipodi="http://sodipodi.sourceforge.net/DTD/sodipodi-0.dtd"
   xmlns:inkscape="http://www.inkscape.org/namespaces/inkscape"
   version="1.1"
   id="Capa_1"
   x="0px"
   y="0px"
   viewBox="0 0 398.58 398.58"
   style="enable-background:new 0 0 398.58 398.58;"
   xml:space="preserve"
   sodipodi:docname="16.svg"
   inkscape:version="0.92.2 (5c3e80d, 2017-08-06)"><metadata
     id="metadata131"><rdf:RDF><cc:Work
         rdf:about=""><dc:format>image/svg+xml</dc:format><dc:type
           rdf:resource="http://purl.org/dc/dcmitype/StillImage" /><dc:title></dc:title></cc:Work></rdf:RDF></metadata><defs
     id="defs129" /><sodipodi:namedview
     pagecolor="#ffffff"
     bordercolor="#666666"
     borderopacity="1"
     objecttolerance="10"
     gridtolerance="10"
     guidetolerance="10"
     inkscape:pageopacity="0"
     inkscape:pageshadow="2"
     inkscape:window-width="1366"
     inkscape:window-height="705"
     id="namedview127"
     showgrid="false"
     inkscape:zoom="0.59210198"
     inkscape:cx="199.28999"
     inkscape:cy="199.28999"
     inkscape:window-x="-8"
     inkscape:window-y="-8"
     inkscape:window-maximized="1"
     inkscape:current-layer="Capa_1" /><g
     id="g94"
     style="fill:#800080"><path
       d="M133.103,148.253c7.321-4.317,12.246-12.281,12.246-21.377c0-11.965-8.516-21.979-19.805-24.299v-7.269   c24.008-2.508,42.786-22.862,42.786-47.523C168.329,21.437,146.893,0,120.544,0S72.758,21.437,72.758,47.786   c0,24.661,18.778,45.015,42.786,47.523v7.269c-11.289,2.32-19.805,12.333-19.805,24.299c0,9.097,4.925,17.061,12.247,21.378   L54.271,306.02c-8.658,25.441-2.233,53.055,16.768,72.066c13.216,13.216,30.797,20.494,49.506,20.494   c18.708,0,36.29-7.278,49.506-20.495c19-19.011,25.425-46.625,16.767-72.066L133.103,148.253z M82.758,47.786   C82.758,26.951,99.709,10,120.544,10s37.786,16.951,37.786,37.786s-16.951,37.786-37.786,37.786S82.758,68.621,82.758,47.786z    M115.544,112.958v13.917c0,2.761,2.239,5,5,5s5-2.239,5-5v-13.917c5.707,2.057,9.805,7.51,9.805,13.917   c0,8.163-6.642,14.805-14.805,14.805s-14.805-6.642-14.805-14.805C105.739,120.469,109.837,115.016,115.544,112.958z    M162.978,371.015c-11.327,11.327-26.397,17.565-42.434,17.565s-31.107-6.238-42.434-17.564   c-16.287-16.296-21.794-39.967-14.373-61.774l53.713-157.761c1.014,0.127,2.045,0.2,3.093,0.2c1.048,0,2.079-0.073,3.094-0.2   l53.713,157.76C184.772,331.049,179.264,354.719,162.978,371.015z"
       id="path2"
       style="fill:#800080" /><path
       d="M72.513,323.579c0.35,0.08,0.7,0.11,1.05,0.11c2.31,0,4.38-1.61,4.88-3.95c0.58-2.7-1.15-5.36-3.84-5.94   c-2.71-0.57-5.36,1.15-5.94,3.85C68.093,320.349,69.813,323.009,72.513,323.579z"
       id="path4"
       style="fill:#800080" /><path
       d="M78.683,338.689c-0.65-2.68-3.35-4.33-6.03-3.68c-2.69,0.65-4.34,3.35-3.69,6.03c0.56,2.29,2.6,3.83,4.86,3.83   c0.39,0,0.78-0.05,1.18-0.14C77.683,344.079,79.333,341.379,78.683,338.689z"
       id="path6"
       style="fill:#800080" /><path
       d="M78.503,303.119c0.53,0.18,1.07,0.26,1.61,0.26c2.08,0,4.02-1.31,4.73-3.39c0.89-2.61-0.51-5.45-3.12-6.34   c-2.62-0.89-5.45,0.51-6.35,3.12C74.483,299.389,75.883,302.229,78.503,303.119z"
       id="path8"
       style="fill:#800080" /><path
       d="M85.383,282.899c0.53,0.18,1.08,0.27,1.61,0.27c2.08,0,4.02-1.31,4.73-3.39c0.89-2.61-0.51-5.46-3.12-6.35   c-2.61-0.89-5.45,0.51-6.34,3.13C81.373,279.169,82.763,282.009,85.383,282.899z"
       id="path10"
       style="fill:#800080" /><path
       d="M80.093,354.949c-2.14,1.75-2.46,4.9-0.72,7.04c0.99,1.21,2.43,1.84,3.88,1.84c1.11,0,2.23-0.37,3.16-1.13   c2.14-1.74,2.46-4.89,0.72-7.03C85.383,353.529,82.233,353.209,80.093,354.949z"
       id="path12"
       style="fill:#800080" /><path
       d="M92.263,262.689c0.53,0.18,1.08,0.26,1.61,0.26c2.08,0,4.03-1.31,4.74-3.39c0.88-2.61-0.51-5.45-3.13-6.34   c-2.61-0.89-5.45,0.51-6.34,3.12C88.253,258.959,89.653,261.799,92.263,262.689z"
       id="path14"
       style="fill:#800080" /><path
       d="M139.123,367.389c-2.49,1.2-3.54,4.18-2.34,6.67c0.86,1.8,2.65,2.84,4.51,2.84c0.73,0,1.46-0.15,2.16-0.49   c2.49-1.19,3.54-4.18,2.35-6.67C144.603,367.249,141.613,366.199,139.123,367.389z"
       id="path16"
       style="fill:#800080" /><path
       d="M120.633,371.589c-0.01,0-0.03,0-0.04,0c-0.02,0-0.03,0-0.05,0c-2.76,0-5,2.24-5,5c0,2.76,2.24,5,5,5c0.02,0,0.03,0,0.05,0   s0.04,0,0.06,0c2.76-0.01,4.99-2.25,4.99-5.01C125.633,373.819,123.393,371.579,120.633,371.589z"
       id="path18"
       style="fill:#800080" /><path
       d="M168.453,334.909c-2.69-0.64-5.39,1.01-6.03,3.7c-0.64,2.68,1.01,5.38,3.7,6.03c0.39,0.09,0.78,0.13,1.16,0.13   c2.26,0,4.31-1.54,4.86-3.83C172.793,338.249,171.133,335.549,168.453,334.909z"
       id="path20"
       style="fill:#800080" /><path
       d="M166.463,313.709c-2.7,0.58-4.42,3.24-3.84,5.94c0.5,2.35,2.58,3.95,4.88,3.95c0.35,0,0.71-0.04,1.06-0.11   c2.7-0.58,4.42-3.24,3.83-5.94C171.813,314.849,169.163,313.129,166.463,313.709z"
       id="path22"
       style="fill:#800080" /><path
       d="M161.043,354.869c-2.14-1.74-5.29-1.41-7.03,0.73c-1.74,2.15-1.41,5.29,0.73,7.04c0.93,0.75,2.04,1.11,3.15,1.11   c1.45,0,2.9-0.63,3.88-1.85C163.513,359.759,163.193,356.609,161.043,354.869z"
       id="path24"
       style="fill:#800080" /><path
       d="M106.033,222.259c0.53,0.18,1.07,0.27,1.61,0.27c2.08,0,4.02-1.31,4.73-3.39c0.89-2.62-0.51-5.46-3.12-6.35   c-2.62-0.89-5.46,0.51-6.35,3.12C102.013,218.529,103.413,221.369,106.033,222.259z"
       id="path26"
       style="fill:#800080" /><path
       d="M149.333,279.689c0.7,2.08,2.65,3.39,4.73,3.39c0.53,0,1.08-0.09,1.61-0.27c2.62-0.89,4.01-3.73,3.12-6.35   c-0.89-2.61-3.73-4.01-6.34-3.12C149.833,274.229,148.443,277.069,149.333,279.689z"
       id="path28"
       style="fill:#800080" /><path
       d="M135.563,239.259c0.71,2.08,2.65,3.39,4.73,3.39c0.54,0,1.08-0.09,1.62-0.27c2.61-0.89,4.01-3.73,3.12-6.35   c-0.89-2.61-3.73-4.01-6.35-3.12C136.073,233.799,134.673,236.639,135.563,239.259z"
       id="path30"
       style="fill:#800080" /><path
       d="M142.443,259.469c0.71,2.08,2.66,3.39,4.74,3.39c0.53,0,1.07-0.08,1.61-0.27c2.61-0.89,4.01-3.73,3.12-6.34   c-0.89-2.61-3.73-4.01-6.34-3.12C142.953,254.019,141.553,256.859,142.443,259.469z"
       id="path32"
       style="fill:#800080" /><path
       d="M156.213,299.899c0.71,2.08,2.65,3.39,4.73,3.39c0.54,0,1.08-0.09,1.61-0.27c2.62-0.89,4.01-3.73,3.12-6.34   c-0.88-2.62-3.73-4.01-6.34-3.12C156.723,294.449,155.323,297.289,156.213,299.899z"
       id="path34"
       style="fill:#800080" /><path
       d="M99.143,242.469c0.54,0.18,1.08,0.27,1.61,0.27c2.08,0,4.03-1.31,4.74-3.39c0.89-2.61-0.51-5.45-3.12-6.35   c-2.62-0.88-5.46,0.51-6.35,3.13C95.133,238.739,96.533,241.579,99.143,242.469z"
       id="path36"
       style="fill:#800080" /><path
       d="M102.043,367.429c-2.5-1.19-5.48-0.13-6.67,2.36c-1.19,2.49-0.14,5.48,2.36,6.67c0.69,0.33,1.43,0.48,2.15,0.48   c1.86,0,3.66-1.05,4.51-2.84C105.583,371.609,104.533,368.619,102.043,367.429z"
       id="path38"
       style="fill:#800080" /><path
       d="M133.413,222.429c0.54,0,1.08-0.08,1.61-0.27c2.62-0.89,4.02-3.73,3.13-6.34c-0.89-2.62-3.74-4.01-6.35-3.12   c-2.61,0.89-4.01,3.73-3.12,6.34C129.393,221.119,131.333,222.429,133.413,222.429z"
       id="path40"
       style="fill:#800080" /><path
       d="M120.493,207.789c0.01,0,0.02,0,0.02,0c2.76-0.01,4.99-2.26,4.98-5.02c-0.01-2.77-2.26-4.99-5.02-4.98   c-2.76,0.01-4.99,2.26-4.98,5.02C115.503,205.559,117.743,207.789,120.493,207.789z"
       id="path42"
       style="fill:#800080" /><path
       d="M125.277,236.964c-0.69-2.026-2.593-3.389-4.733-3.389s-4.043,1.362-4.733,3.389L88.35,317.62   c-4.208,12.361-1.086,25.775,8.146,35.007c6.423,6.424,14.963,9.961,24.047,9.961s17.624-3.538,24.047-9.961   c9.233-9.232,12.354-22.647,8.146-35.007L125.277,236.964z M137.52,345.557c-4.534,4.534-10.563,7.032-16.976,7.032   c-6.413,0-12.442-2.498-16.976-7.032c-6.518-6.518-8.722-15.988-5.751-24.714l22.727-66.753l22.727,66.753   C146.241,329.569,144.038,339.039,137.52,345.557z"
       id="path44"
       style="fill:#800080" /><path
       d="M143.945,47.786c0-12.903-10.498-23.401-23.401-23.401S97.143,34.882,97.143,47.786s10.498,23.401,23.401,23.401   S143.945,60.689,143.945,47.786z M107.143,47.786c0-7.39,6.012-13.401,13.401-13.401c7.39,0,13.401,6.012,13.401,13.401   s-6.012,13.401-13.401,13.401C113.155,61.187,107.143,55.175,107.143,47.786z"
       id="path46"
       style="fill:#800080" /><path
       d="M344.309,306.019l-53.714-157.766c7.321-4.317,12.246-12.281,12.246-21.377c0-11.965-8.516-21.979-19.805-24.299v-7.269   c24.008-2.508,42.786-22.862,42.786-47.523C325.822,21.437,304.385,0,278.036,0S230.25,21.437,230.25,47.786   c0,24.661,18.778,45.015,42.786,47.523v7.269c-11.289,2.32-19.805,12.333-19.805,24.299c0,9.097,4.926,17.061,12.247,21.378   L211.763,306.02c-8.658,25.441-2.233,53.055,16.768,72.066c13.216,13.216,30.797,20.494,49.505,20.494   c18.708,0,36.29-7.278,49.507-20.495C346.542,359.074,352.967,331.46,344.309,306.019z M240.25,47.786   C240.25,26.951,257.201,10,278.036,10s37.786,16.951,37.786,37.786s-16.951,37.786-37.786,37.786S240.25,68.621,240.25,47.786z    M273.036,112.958v13.917c0,2.761,2.239,5,5,5s5-2.239,5-5v-13.917c5.707,2.057,9.805,7.51,9.805,13.917   c0,8.163-6.642,14.805-14.805,14.805s-14.805-6.642-14.805-14.805C263.231,120.469,267.329,115.016,273.036,112.958z    M320.47,371.015c-11.327,11.327-26.397,17.565-42.435,17.565s-31.107-6.238-42.433-17.564   c-16.287-16.296-21.794-39.967-14.373-61.774l53.713-157.761c1.014,0.127,2.045,0.2,3.093,0.2c1.048,0,2.079-0.073,3.094-0.2   l53.713,157.76C342.264,331.049,336.756,354.72,320.47,371.015z"
       id="path48"
       style="fill:#800080" /><path
       d="M323.953,313.709c-2.7,0.58-4.42,3.24-3.84,5.94c0.51,2.35,2.58,3.95,4.89,3.95c0.34,0,0.7-0.04,1.05-0.11   c2.7-0.58,4.42-3.24,3.84-5.94C329.313,314.849,326.653,313.129,323.953,313.709z"
       id="path50"
       style="fill:#800080" /><path
       d="M313.703,299.899c0.71,2.08,2.65,3.39,4.73,3.39c0.54,0,1.08-0.08,1.62-0.27c2.61-0.89,4.01-3.73,3.12-6.34   c-0.89-2.62-3.73-4.01-6.35-3.12C314.213,294.449,312.813,297.289,313.703,299.899z"
       id="path52"
       style="fill:#800080" /><path
       d="M263.523,222.259c0.53,0.18,1.07,0.26,1.61,0.26c2.08,0,4.02-1.31,4.73-3.39c0.89-2.61-0.51-5.45-3.12-6.34   c-2.61-0.89-5.45,0.51-6.35,3.12C259.513,218.529,260.903,221.369,263.523,222.259z"
       id="path54"
       style="fill:#800080" /><path
       d="M256.633,242.469c0.54,0.18,1.08,0.27,1.62,0.27c2.08,0,4.02-1.31,4.73-3.39c0.89-2.61-0.51-5.46-3.12-6.34   c-2.62-0.89-5.46,0.5-6.35,3.12C252.623,238.739,254.023,241.579,256.633,242.469z"
       id="path56"
       style="fill:#800080" /><path
       d="M277.983,207.789c0.01,0,0.02,0,0.02,0c2.77-0.01,4.99-2.26,4.98-5.02c-0.01-2.76-2.26-4.99-5.02-4.98   c-2.76,0.01-4.99,2.26-4.98,5.02C273.003,205.559,275.233,207.789,277.983,207.789z"
       id="path58"
       style="fill:#800080" /><path
       d="M249.753,262.689c0.54,0.18,1.08,0.26,1.62,0.26c2.08,0,4.02-1.31,4.73-3.39c0.89-2.61-0.51-5.45-3.12-6.34   c-2.62-0.89-5.46,0.51-6.35,3.12C245.743,258.959,247.143,261.799,249.753,262.689z"
       id="path60"
       style="fill:#800080" /><path
       d="M290.903,222.429c0.54,0,1.08-0.08,1.62-0.27c2.61-0.89,4.01-3.73,3.12-6.34c-0.89-2.61-3.73-4.01-6.35-3.12   c-2.61,0.89-4.01,3.73-3.12,6.34C286.883,221.119,288.823,222.429,290.903,222.429z"
       id="path62"
       style="fill:#800080" /><path
       d="M230.003,323.579c0.35,0.08,0.7,0.11,1.05,0.11c2.31,0,4.38-1.6,4.88-3.95c0.58-2.7-1.14-5.36-3.84-5.94   c-2.7-0.57-5.36,1.15-5.94,3.85C225.583,320.349,227.303,323.009,230.003,323.579z"
       id="path64"
       style="fill:#800080" /><path
       d="M236.173,338.689c-0.65-2.68-3.35-4.33-6.03-3.68c-2.68,0.65-4.33,3.35-3.69,6.03c0.56,2.29,2.61,3.83,4.86,3.83   c0.39,0,0.78-0.05,1.18-0.14C235.173,344.079,236.823,341.379,236.173,338.689z"
       id="path66"
       style="fill:#800080" /><path
       d="M242.873,282.899c0.53,0.18,1.08,0.27,1.61,0.27c2.08,0,4.03-1.31,4.73-3.39c0.9-2.62-0.5-5.46-3.12-6.35   c-2.61-0.89-5.45,0.51-6.34,3.13C238.863,279.169,240.263,282.009,242.873,282.899z"
       id="path68"
       style="fill:#800080" /><path
       d="M293.053,239.259c0.71,2.08,2.66,3.39,4.74,3.39c0.53,0,1.07-0.09,1.61-0.27c2.61-0.89,4.01-3.73,3.12-6.35   c-0.89-2.61-3.73-4.01-6.34-3.12C293.563,233.799,292.163,236.639,293.053,239.259z"
       id="path70"
       style="fill:#800080" /><path
       d="M235.993,303.119c0.53,0.18,1.08,0.26,1.61,0.26c2.08,0,4.03-1.31,4.73-3.39c0.89-2.61-0.5-5.45-3.12-6.34   c-2.61-0.89-5.45,0.51-6.34,3.12C231.983,299.379,233.373,302.229,235.993,303.119z"
       id="path72"
       style="fill:#800080" /><path
       d="M259.533,367.429c-2.5-1.19-5.48-0.13-6.67,2.36c-1.19,2.49-0.13,5.48,2.36,6.67c0.69,0.33,1.43,0.49,2.15,0.49   c1.87,0,3.66-1.06,4.51-2.85C263.083,371.609,262.023,368.619,259.533,367.429z"
       id="path74"
       style="fill:#800080" /><path
       d="M237.583,354.949c-2.14,1.75-2.46,4.9-0.71,7.04c0.99,1.21,2.42,1.84,3.88,1.84c1.11,0,2.22-0.37,3.15-1.13   c2.14-1.74,2.46-4.89,0.72-7.03C242.873,353.529,239.733,353.209,237.583,354.949z"
       id="path76"
       style="fill:#800080" /><path
       d="M296.623,367.389c-2.49,1.2-3.54,4.19-2.35,6.67c0.86,1.8,2.65,2.84,4.52,2.84c0.72,0,1.46-0.15,2.15-0.49   c2.49-1.19,3.54-4.18,2.35-6.67C302.093,367.249,299.113,366.199,296.623,367.389z"
       id="path78"
       style="fill:#800080" /><path
       d="M278.123,371.589c-0.01,0-0.02,0-0.04,0c-0.01,0-0.03,0-0.05,0c-2.76,0-5,2.24-5,5c0,2.76,2.24,5,5,5c0.02,0,0.03,0,0.05,0   s0.03,0,0.05,0h0.01c2.76-0.01,5-2.25,4.99-5.01C283.123,373.819,280.883,371.579,278.123,371.589z"
       id="path80"
       style="fill:#800080" /><path
       d="M318.533,354.869c-2.14-1.74-5.29-1.41-7.03,0.73c-1.74,2.15-1.41,5.29,0.73,7.03c0.93,0.76,2.04,1.12,3.15,1.12   c1.45,0,2.9-0.63,3.89-1.85C321.013,359.759,320.683,356.609,318.533,354.869z"
       id="path82"
       style="fill:#800080" /><path
       d="M325.943,334.909c-2.69-0.64-5.39,1.01-6.03,3.7c-0.64,2.68,1.01,5.38,3.7,6.03c0.39,0.09,0.78,0.14,1.17,0.14   c2.26,0,4.31-1.55,4.86-3.84c-0.01,0-0.01,0-0.01,0C330.283,338.249,328.623,335.549,325.943,334.909z"
       id="path84"
       style="fill:#800080" /><path
       d="M299.943,259.469c0.7,2.08,2.65,3.39,4.73,3.39c0.53,0,1.08-0.08,1.61-0.27c2.61-0.89,4.01-3.73,3.12-6.34   c-0.89-2.62-3.73-4.01-6.34-3.12C300.443,254.019,299.053,256.859,299.943,259.469z"
       id="path86"
       style="fill:#800080" /><path
       d="M306.823,279.689c0.71,2.08,2.65,3.39,4.73,3.39c0.53,0,1.08-0.09,1.61-0.27c2.62-0.89,4.01-3.73,3.12-6.35   c-0.89-2.61-3.73-4.01-6.34-3.12S305.933,277.069,306.823,279.689z"
       id="path88"
       style="fill:#800080" /><path
       d="M282.769,236.964c-0.69-2.026-2.593-3.389-4.733-3.389s-4.043,1.362-4.733,3.389l-27.46,80.655   c-4.208,12.361-1.086,25.775,8.146,35.007c6.423,6.424,14.963,9.961,24.047,9.961s17.624-3.538,24.047-9.961   c9.233-9.232,12.354-22.647,8.146-35.007L282.769,236.964z M295.012,345.557c-4.534,4.534-10.563,7.032-16.976,7.032   c-6.413,0-12.442-2.498-16.976-7.032c-6.518-6.518-8.722-15.988-5.751-24.714l22.727-66.753l22.727,66.753   C303.734,329.569,301.53,339.039,295.012,345.557z"
       id="path90"
       style="fill:#800080" /><path
       d="M301.437,47.786c0-12.903-10.498-23.401-23.401-23.401s-23.401,10.498-23.401,23.401s10.498,23.401,23.401,23.401   S301.437,60.689,301.437,47.786z M264.635,47.786c0-7.39,6.012-13.401,13.401-13.401s13.401,6.012,13.401,13.401   s-6.012,13.401-13.401,13.401S264.635,55.175,264.635,47.786z"
       id="path92"
       style="fill:#800080" /></g><g
     id="g96" /><g
     id="g98" /><g
     id="g100" /><g
     id="g102" /><g
     id="g104" /><g
     id="g106" /><g
     id="g108" /><g
     id="g110" /><g
     id="g112" /><g
     id="g114" /><g
     id="g116" /><g
     id="g118" /><g
     id="g120" /><g
     id="g122" /><g
     id="g124" /></svg>