<?xml version="1.0" encoding="UTF-8" standalone="no"?>
<!-- Generator: Adobe Illustrator 17.1.0, SVG Export Plug-In . SVG Version: 6.00 Build 0)  -->

<svg
   xmlns:dc="http://purl.org/dc/elements/1.1/"
   xmlns:cc="http://creativecommons.org/ns#"
   xmlns:rdf="http://www.w3.org/1999/02/22-rdf-syntax-ns#"
   xmlns:svg="http://www.w3.org/2000/svg"
   xmlns="http://www.w3.org/2000/svg"
   xmlns:sodipodi="http://sodipodi.sourceforge.net/DTD/sodipodi-0.dtd"
   xmlns:inkscape="http://www.inkscape.org/namespaces/inkscape"
   version="1.1"
   id="Capa_1"
   x="0px"
   y="0px"
   viewBox="0 0 450.95 450.95"
   style="enable-background:new 0 0 450.95 450.95;"
   xml:space="preserve"
   sodipodi:docname="18.svg"
   inkscape:version="0.92.2 (5c3e80d, 2017-08-06)"><metadata
     id="metadata38"><rdf:RDF><cc:Work
         rdf:about=""><dc:format>image/svg+xml</dc:format><dc:type
           rdf:resource="http://purl.org/dc/dcmitype/StillImage" /><dc:title></dc:title></cc:Work></rdf:RDF></metadata><defs
     id="defs36" /><sodipodi:namedview
     pagecolor="#ffffff"
     bordercolor="#666666"
     borderopacity="1"
     objecttolerance="10"
     gridtolerance="10"
     guidetolerance="10"
     inkscape:pageopacity="0"
     inkscape:pageshadow="2"
     inkscape:window-width="1366"
     inkscape:window-height="705"
     id="namedview34"
     showgrid="false"
     inkscape:zoom="0.5233396"
     inkscape:cx="225.47501"
     inkscape:cy="225.47501"
     inkscape:window-x="-8"
     inkscape:window-y="-8"
     inkscape:window-maximized="1"
     inkscape:current-layer="Capa_1" /><path
     id="XMLID_64_"
     d="M408.036,369.014c-1.03-3.308-3.867-5.73-7.294-6.23c-24.554-3.579-50.791-19.707-73.879-45.413  c-21.713-24.176-38.935-54.499-48.668-85.633l25.928-97.562l12.633,6.191c4.463,2.187,9.855,0.342,12.042-4.121  c2.188-4.464,0.342-9.855-4.121-12.043l-92.688-45.424v-16.84c13.066-3.886,22.622-16.007,22.622-30.317  C254.61,14.186,240.424,0,222.988,0c-17.436,0-31.622,14.186-31.622,31.622c0,4.971,4.029,9,9,9s9-4.029,9-9  c0-7.512,6.11-13.622,13.622-13.622s13.622,6.11,13.622,13.622c0,7.511-6.111,13.622-13.622,13.622c-4.971,0-9,4.029-9,9v24.535  l-72.382,35.473c-0.095,0.044-0.188,0.091-0.281,0.138l-20.025,9.813c-4.463,2.188-6.309,7.579-4.121,12.043  c2.188,4.462,7.579,6.307,12.042,4.121l10.332-5.063l25.728,96.813c-14.944,67.047-47.669,121.98-83.692,140.287  c-4.431,2.252-6.198,7.67-3.946,12.101c2.251,4.431,7.667,6.199,12.101,3.946c20.908-10.625,40.824-31.271,57.595-59.702  c14.881-25.229,26.708-55.467,34.388-87.837h19.951c4.971,0,9-4.029,9-9s-4.029-9-9-9h-20.219l-25.428-95.685l18.495-9.063  c5.785,21.337,25.32,37.078,48.462,37.078c23.143,0,42.678-15.74,48.461-37.078l16.195,7.937l-25.729,96.812h-9.27  c-4.971,0-9,4.029-9,9s4.029,9,9,9h9.594c10.678,32.213,28.713,63.414,51.231,88.485c20.732,23.084,43.34,38.977,66.267,46.737  c-14.402,10.26-31.378,18.32-50.025,23.703c-33.422-32.711-61.001-75.071-75.187-117.397c-1.579-4.712-6.679-7.255-11.393-5.673  c-4.713,1.579-7.253,6.681-5.673,11.394c10.637,31.74,28.262,63.755,50.97,92.582c22.145,28.115,48.047,51.913,74.905,68.822  c1.489,0.938,3.147,1.385,4.787,1.385c2.99,0,5.914-1.489,7.625-4.206c2.648-4.206,1.385-9.763-2.821-12.411  c-9.512-5.988-18.835-12.875-27.851-20.501c23.347-8.136,44.043-20.268,60.495-35.549  C408.106,375.926,409.066,372.321,408.036,369.014z M222.988,137.242c-16.067,0-29.424-11.828-31.82-27.233l31.82-15.595  l31.818,15.594C252.411,125.414,239.054,137.242,222.988,137.242z M288.692,416.236c0.123,4.969-3.806,9.097-8.775,9.219  c-3.352,0.084-6.731,0.09-10.043,0.021c-34.352-0.702-66.998-9.155-94.729-24.489c-23.108,18.864-52.321,29.485-82.557,29.485  c-14.668,0-29.57-2.498-44.14-7.77c-4.674-1.69-7.093-6.851-5.402-11.524s6.851-7.094,11.525-5.401  c58.135,21.029,122.545-9.155,143.579-67.29c1.691-4.674,6.852-7.094,11.525-5.401c4.674,1.69,7.092,6.851,5.401,11.524  c-5.976,16.518-14.968,31.09-26.133,43.322c24.062,12.219,51.954,18.947,81.3,19.548c3.043,0.063,6.147,0.056,9.229-0.02  C284.416,407.363,288.57,411.268,288.692,416.236z"
     style="fill:#800080" /><g
     id="g3" /><g
     id="g5" /><g
     id="g7" /><g
     id="g9" /><g
     id="g11" /><g
     id="g13" /><g
     id="g15" /><g
     id="g17" /><g
     id="g19" /><g
     id="g21" /><g
     id="g23" /><g
     id="g25" /><g
     id="g27" /><g
     id="g29" /><g
     id="g31" /></svg>