<?xml version="1.0" encoding="UTF-8" standalone="no"?>
<!-- Generator: Adobe Illustrator 19.0.0, SVG Export Plug-In . SVG Version: 6.00 Build 0)  -->

<svg
   xmlns:dc="http://purl.org/dc/elements/1.1/"
   xmlns:cc="http://creativecommons.org/ns#"
   xmlns:rdf="http://www.w3.org/1999/02/22-rdf-syntax-ns#"
   xmlns:svg="http://www.w3.org/2000/svg"
   xmlns="http://www.w3.org/2000/svg"
   xmlns:sodipodi="http://sodipodi.sourceforge.net/DTD/sodipodi-0.dtd"
   xmlns:inkscape="http://www.inkscape.org/namespaces/inkscape"
   version="1.1"
   id="Layer_1"
   x="0px"
   y="0px"
   viewBox="0 0 512 512"
   style="enable-background:new 0 0 512 512;"
   xml:space="preserve"
   sodipodi:docname="14.svg"
   inkscape:version="0.92.2 (5c3e80d, 2017-08-06)"><metadata
     id="metadata51"><rdf:RDF><cc:Work
         rdf:about=""><dc:format>image/svg+xml</dc:format><dc:type
           rdf:resource="http://purl.org/dc/dcmitype/StillImage" /><dc:title></dc:title></cc:Work></rdf:RDF></metadata><defs
     id="defs49" /><sodipodi:namedview
     pagecolor="#ffffff"
     bordercolor="#666666"
     borderopacity="1"
     objecttolerance="10"
     gridtolerance="10"
     guidetolerance="10"
     inkscape:pageopacity="0"
     inkscape:pageshadow="2"
     inkscape:window-width="1366"
     inkscape:window-height="705"
     id="namedview47"
     showgrid="false"
     inkscape:zoom="0.4609375"
     inkscape:cx="256"
     inkscape:cy="256"
     inkscape:window-x="-8"
     inkscape:window-y="-8"
     inkscape:window-maximized="1"
     inkscape:current-layer="Layer_1" /><g
     id="g14"
     style="fill:#800080"><g
       id="g12"
       style="fill:#800080"><g
         id="g10"
         style="fill:#800080"><path
           d="M511.939,417.009c-0.208-3.686-1.265-7.411-3.139-11.168c-0.319-0.83-0.743-1.596-1.242-2.303     c-7.941-13.518-26.548-27.441-55.594-41.555c-27.613-13.42-61.631-25.162-80.89-27.921c-1.283-0.186-2.594-0.131-3.856,0.153     c-0.208,0.047-21.146,4.686-46,4.686c-28.027,0-64.019-5.894-76.321-33.973c-5.567-12.709-10.667-27.353-16.065-42.855     c-19.55-56.143-46.323-133.033-130.184-216.307c-2.875-2.857-7.121-3.833-10.953-2.529c-1.215,0.414-30.004,10.465-54.331,40.606     C18.64,102.087,3.716,130.337,0.65,171.458c-0.194,0.948-0.256,1.897-0.194,2.831c-1.213,20.064,0.371,43.111,6.123,69.495     c19.045,87.339,29.611,154.981,31.398,201.044c0.256,6.597,0.544,14.076,6.092,19.321c5.08,4.803,11.642,5.184,19.692,5.184     h22.811c0.009,0.001,0.017,0,0.021,0c0.015,0,0.027-0.002,0.042-0.002h51.604c5.891,0,10.667-4.777,10.667-10.667     c0-5.89-4.775-10.667-10.667-10.667H97.115c-0.021-13.667,0.4-39.187,3.204-66.283c2.704-26.112,7.006-47.713,12.614-63.922     c0.002-0.008,0.006-0.014,0.009-0.021c2.973-8.588,6.313-15.662,9.978-21.086c11.508,20.111,20.662,38.69,28.9,55.41     c18.09,36.718,32.378,65.72,58.825,86.132c27.871,21.513,67.034,31.105,126.982,31.105c98.871,0,146.75-7.989,165.261-27.579     C509.431,434.832,512.477,426.506,511.939,417.009z M100.906,292.16c-3.421-5.004-6.627-9.475-9.742-13.588     c-3.554-4.697-10.245-5.625-14.942-2.066c-4.698,3.555-5.622,10.245-2.067,14.943c5.132,6.777,10.575,14.66,16.96,24.561     c-5.394,17.12-9.41,38.317-12.017,63.51c-2.921,28.221-3.36,54.329-3.331,68.48H63.76v0c-1.877,0-3.246-0.033-4.242-0.083     c-0.079-0.935-0.158-2.202-0.225-3.915c-1.836-47.311-12.558-116.203-31.871-204.762c-3.867-17.741-5.896-34.429-6.121-50.044     c6.114,2.713,11.834,5.596,17.24,8.714c28.328,16.332,49.802,39.522,72.888,79.039     C107.623,281.103,104.117,286.185,100.906,292.16z M487.383,427.102C469.681,445.834,393.437,448,337.626,448     c-114.776,0-132.119-35.201-166.672-105.332c-10.04-20.381-21.421-43.479-36.825-69.011     c-26.367-46.924-51.775-75.113-84.934-94.229c-8.269-4.768-17.121-9.029-26.855-12.948c2.929-26.533,11.91-49.405,26.938-68.381     c14.365-18.14,30.846-27.884,39.417-32.089c76.346,77.736,100.499,147.101,119.99,203.077     c5.537,15.905,10.769,30.929,16.671,44.399c13.398,30.581,46.546,46.746,95.861,46.746c22.921,0,42.379-3.511,48.625-4.772     c15.169,2.579,44.938,12.17,72.796,25.709c16.019,7.785,27.071,14.75,34.5,20.582c-16.625,1.85-43.211,4.185-78.103,5.226     c-5.888,0.175-10.518,5.091-10.341,10.98c0.171,5.78,4.911,10.348,10.654,10.348c0.109,0,0.217-0.001,0.325-0.005     c44.737-1.336,75.751-4.685,90.728-6.639C489.973,423.652,489.004,425.384,487.383,427.102z"
           id="path2"
           style="fill:#800080" /><path
           d="M69.168,253.501c-1.804-1.751-2.708-2.629-4.861-4.537c-4.411-3.906-11.152-3.5-15.058,0.909     c-3.906,4.41-3.5,11.151,0.91,15.058c1.788,1.584,2.429,2.207,4.146,3.873l0.286,0.277c2.073,2.013,4.752,3.013,7.429,3.013     c2.783,0,5.563-1.083,7.654-3.236c4.104-4.226,4.002-10.979-0.223-15.083L69.168,253.501z"
           id="path4"
           style="fill:#800080" /><path
           d="M366.758,407.52c-2.046,0.01-3.394,0.014-5.484,0.014c-5.889,0-10.667,4.777-10.667,10.667     c0,5.89,4.778,10.667,10.667,10.667c2.127,0,3.498-0.004,5.582-0.014c5.889-0.027,10.643-4.824,10.617-10.716     C377.445,412.247,372.681,407.496,366.758,407.52z"
           id="path6"
           style="fill:#800080" /><path
           d="M17.621,447.998h-6.955C4.776,447.998,0,452.774,0,458.665c0,5.89,4.776,10.667,10.667,10.667h6.955     c5.889,0,10.667-4.777,10.667-10.667C28.288,452.774,23.51,447.998,17.621,447.998z"
           id="path8"
           style="fill:#800080" /></g></g></g><g
     id="g16" /><g
     id="g18" /><g
     id="g20" /><g
     id="g22" /><g
     id="g24" /><g
     id="g26" /><g
     id="g28" /><g
     id="g30" /><g
     id="g32" /><g
     id="g34" /><g
     id="g36" /><g
     id="g38" /><g
     id="g40" /><g
     id="g42" /><g
     id="g44" /></svg>